<svg xmlns="http://www.w3.org/2000/svg" version="1.1" xmlnsXlink="http://www.w3.org/1999/xlink" xmlnsSvgjs="http://svgjs.dev/svgjs" width="1000" height="290" viewBox="0 0 1000 290"><g transform="matrix(1,0,0,1,-0.6060606060606233,0.14130590120007014)"><svg viewBox="0 0 396 115" data-background-color="#1f2d5a" preserveAspectRatio="xMidYMid meet" height="290" width="1000" xmlns="http://www.w3.org/2000/svg" xmlnsXlink="http://www.w3.org/1999/xlink"><g id="tight-bounds" transform="matrix(1,0,0,1,0.2400000000000091,-0.0560350987517495)"><svg viewBox="0 0 395.52 115.11207019750353" height="115.11207019750353" width="395.52"><g><svg viewBox="0 0 586.1369893421598 170.58920474946422" height="115.11207019750353" width="395.52"><g transform="matrix(1,0,0,1,0,23.576366213565606)"><svg viewBox="0 0 395.52 123.436472322333" height="123.436472322333" width="395.52"><g><svg viewBox="0 0 395.52 123.436472322333" height="123.436472322333" width="395.52"><g><svg viewBox="0 0 395.52 84.83617391304347" height="84.83617391304347" width="395.52"><g transform="matrix(1,0,0,1,0,0)"><svg width="395.52" viewBox="4.449999809265137 -36.5 172.49000549316406 37" height="84.83617391304347" data-palette-color="#000"><path d="M7.95-3.1L28.3-3.1 28.3 0 4.45 0 4.45-35.5 27.85-35.5 27.85-32.4 7.95-32.4 7.95-19.6 25.3-19.6 25.3-16.65 7.95-16.65 7.95-3.1ZM31.7-12.95L31.7-12.95Q31.7-16.65 33.22-19.73 34.75-22.8 37.45-24.65 40.15-26.5 43.6-26.5L43.6-26.5Q46.85-26.5 49.42-24.78 52-23.05 53.45-20.6L53.45-20.6 53.45-36.5 56.85-36.5 56.85-4.1Q56.85-3.4 57.15-3.08 57.45-2.75 58.05-2.7L58.05-2.7 58.05 0Q57.05 0.15 56.5 0.1L56.5 0.1Q55.45 0.05 54.65-0.75 53.85-1.55 53.85-2.5L53.85-2.5 53.85-5.05Q52.3-2.5 49.65-1 47 0.5 44.15 0.5L44.15 0.5Q41.45 0.5 39.17-0.6 36.9-1.7 35.22-3.6 33.55-5.5 32.62-7.93 31.7-10.35 31.7-12.95ZM53.45-8.95L53.45-8.95 53.45-17Q52.8-18.8 51.35-20.28 49.9-21.75 48.07-22.63 46.25-23.5 44.45-23.5L44.45-23.5Q42.35-23.5 40.65-22.63 38.95-21.75 37.72-20.25 36.5-18.75 35.85-16.85 35.2-14.95 35.2-12.95L35.2-12.95Q35.2-10.85 35.92-8.95 36.65-7.05 38-5.58 39.35-4.1 41.1-3.3 42.85-2.5 44.9-2.5L44.9-2.5Q46.2-2.5 47.6-3 49-3.5 50.27-4.38 51.55-5.25 52.4-6.45 53.25-7.65 53.45-8.95ZM64.3-10.75L64.3-10.75 64.3-26.05 67.7-26.05 67.7-11.35Q67.7-6.9 69.22-4.7 70.75-2.5 73.75-2.5L73.75-2.5Q75.75-2.5 77.62-3.38 79.5-4.25 80.95-5.88 82.4-7.5 83.15-9.65L83.15-9.65 83.15-26.05 86.55-26.05 86.55-4.1Q86.55-3.4 86.84-3.08 87.15-2.75 87.75-2.7L87.75-2.7 87.75 0Q87.15 0.05 86.8 0.08 86.45 0.1 86.15 0.1L86.15 0.1Q85.15 0 84.42-0.7 83.7-1.4 83.65-2.4L83.65-2.4 83.55-5.9Q81.84-2.9 78.92-1.2 76 0.5 72.59 0.5L72.59 0.5Q68.5 0.5 66.39-2.35 64.3-5.2 64.3-10.75ZM91.09 0L105.94-35.5 108.89-35.5 123.64 0 119.94 0 115.34-11.1 99.39-11.1 94.84 0 91.09 0ZM100.14-13.85L114.54-13.85 107.39-31.4 100.14-13.85ZM125.54-12.95L125.54-12.95Q125.54-16.65 127.07-19.73 128.59-22.8 131.29-24.65 133.99-26.5 137.44-26.5L137.44-26.5Q140.69-26.5 143.27-24.78 145.84-23.05 147.29-20.6L147.29-20.6 147.29-36.5 150.69-36.5 150.69-4.1Q150.69-3.4 150.99-3.08 151.29-2.75 151.89-2.7L151.89-2.7 151.89 0Q150.89 0.15 150.34 0.1L150.34 0.1Q149.29 0.05 148.49-0.75 147.69-1.55 147.69-2.5L147.69-2.5 147.69-5.05Q146.14-2.5 143.49-1 140.84 0.5 137.99 0.5L137.99 0.5Q135.29 0.5 133.02-0.6 130.74-1.7 129.07-3.6 127.39-5.5 126.47-7.93 125.54-10.35 125.54-12.95ZM147.29-8.95L147.29-8.95 147.29-17Q146.64-18.8 145.19-20.28 143.74-21.75 141.92-22.63 140.09-23.5 138.29-23.5L138.29-23.5Q136.19-23.5 134.49-22.63 132.79-21.75 131.57-20.25 130.34-18.75 129.69-16.85 129.04-14.95 129.04-12.95L129.04-12.95Q129.04-10.85 129.77-8.95 130.49-7.05 131.84-5.58 133.19-4.1 134.94-3.3 136.69-2.5 138.74-2.5L138.74-2.5Q140.04-2.5 141.44-3 142.84-3.5 144.12-4.38 145.39-5.25 146.24-6.45 147.09-7.65 147.29-8.95ZM166.94 0.5L166.94 0.5Q163.74 0.5 160.99-0.55 158.24-1.6 156.24-3.75L156.24-3.75 157.64-6.15Q159.84-4.1 162.06-3.18 164.29-2.25 166.79-2.25L166.79-2.25Q169.84-2.25 171.74-3.48 173.64-4.7 173.64-7L173.64-7Q173.64-8.55 172.71-9.38 171.79-10.2 170.06-10.73 168.34-11.25 165.94-11.85L165.94-11.85Q163.24-12.6 161.41-13.43 159.59-14.25 158.66-15.53 157.74-16.8 157.74-18.85L157.74-18.85Q157.74-21.4 159.01-23.08 160.29-24.75 162.51-25.63 164.74-26.5 167.49-26.5L167.49-26.5Q170.49-26.5 172.79-25.55 175.09-24.6 176.54-22.9L176.54-22.9 174.89-20.6Q173.49-22.2 171.56-22.98 169.64-23.75 167.29-23.75L167.29-23.75Q165.69-23.75 164.24-23.33 162.79-22.9 161.86-21.93 160.94-20.95 160.94-19.25L160.94-19.25Q160.94-17.85 161.64-17.07 162.34-16.3 163.74-15.78 165.14-15.25 167.19-14.65L167.19-14.65Q170.14-13.85 172.34-13.03 174.54-12.2 175.74-10.9 176.94-9.6 176.94-7.25L176.94-7.25Q176.94-3.6 174.19-1.55 171.44 0.5 166.94 0.5Z" opacity="1" transform="matrix(1,0,0,1,0,0)" fill="#000" class="undefined-text-0" data-fill-palette-color="primary" id="text-0"></path></svg></g></svg></g><g transform="matrix(1,0,0,1,163.31020799999996,104.86395850573912)"><svg viewBox="0 0 232.20979200000002 18.572513816593887" height="18.572513816593887" width="232.20979200000002"><g transform="matrix(1,0,0,1,0,0)"><svg width="232.20979200000002" viewBox="4 -34.400001525878906 435.05999755859375 34.80000305175781" height="18.572513816593887" data-palette-color="#000"><path d="M21.95-33.7L21.95-30.85 7.1-30.85 7.1-18 20.2-18 20.2-15.15 7.1-15.15 7.1 0 4 0 4-33.7 21.95-33.7ZM31.55 0L28.45 0 28.45-33.7 31.55-33.7 31.55 0ZM42.9 0L39.8 0 39.8-33.7 44.05-33.7 52.65-19.45 62.15-3.65Q62.05-8.85 62.05-19.4L62.05-19.4 62.05-33.7 65.15-33.7 65.15 0 60.9 0 52.34-14.15 42.8-30.05Q42.9-24.65 42.9-14.25L42.9-14.25 42.9 0ZM76.24-30.85L76.24-2.85 82.99-2.85Q86.44-2.85 89.09-4.05 91.74-5.25 93.29-7.3 94.84-9.35 95.62-11.8 96.39-14.25 96.39-17.05L96.39-17.05Q96.39-22.8 92.57-26.83 88.74-30.85 82.74-30.85L82.74-30.85 76.24-30.85ZM73.14 0L73.14-33.7 82.74-33.7Q90.14-33.7 94.89-29.1 99.64-24.5 99.64-17.05L99.64-17.05Q99.64-12.5 97.89-8.72 96.14-4.95 92.27-2.48 88.39 0 82.99 0L82.99 0 73.14 0ZM135.29-28.75L137.94-33.7 141.49-33.7 129.99-12.6 129.99 0 126.89 0 126.89-12.6 115.49-33.7 119.04-33.7 121.69-28.75 128.44-15.75Q128.84-16.7 135.29-28.75L135.29-28.75ZM145.49-17L145.49-17Q145.49-24.95 149.46-29.68 153.44-34.4 160.24-34.4L160.24-34.4Q167.24-34.4 171.14-29.73 175.04-25.05 175.04-17L175.04-17Q175.04-9 171.09-4.3 167.14 0.4 160.34 0.4L160.34 0.4Q153.64 0.4 149.56-4.35 145.49-9.1 145.49-17ZM148.69-17L148.69-17Q148.69-10.35 151.86-6.48 155.04-2.6 160.34-2.6L160.34-2.6Q165.84-2.6 168.84-6.43 171.84-10.25 171.84-17L171.84-17Q171.84-23.8 168.81-27.6 165.79-31.4 160.24-31.4L160.24-31.4Q154.84-31.4 151.76-27.58 148.69-23.75 148.69-17ZM202.38-12.65L202.38-12.65 202.38-33.7 205.48-33.7 205.48-12.75Q205.48-6.25 202.33-2.93 199.18 0.4 193.43 0.4L193.43 0.4Q187.78 0.4 184.66-2.85 181.53-6.1 181.53-12.35L181.53-12.35 181.53-33.7 184.63-33.7 184.63-12.4Q184.63-7.35 187.01-4.98 189.38-2.6 193.43-2.6L193.43-2.6Q202.38-2.6 202.38-12.65ZM216.58-30.95L216.58-16.45 222.03-16.45Q225.73-16.45 227.73-18.5 229.73-20.55 229.73-23.6L229.73-23.6Q229.73-30.95 221.43-30.95L221.43-30.95 216.58-30.95ZM225.83-14.25L234.78 0 231.08 0 222.63-13.7 221.68-13.7 216.58-13.7 216.58 0 213.48 0 213.48-33.7 221.08-33.7Q226.98-33.7 229.91-31.03 232.83-28.35 232.83-23.45L232.83-23.45Q232.73-20.05 230.93-17.6 229.13-15.15 225.83-14.25L225.83-14.25ZM248.88-33.7L270.63-33.7 270.63-30.85 261.28-30.85 261.28 0 258.18 0 258.18-30.85 248.88-30.85 248.88-33.7ZM278.47-15.4L278.47-2.85 293.62-2.85 293.62 0 275.37 0 275.37-33.7 293.32-33.7 293.32-30.85 278.47-30.85 278.47-18.25 291.57-18.25 291.57-15.4 278.47-15.4ZM306.07-14.2L305.32-12.1 318.37-12.1 317.62-14.25 311.92-31.1Q311.27-29.1 306.07-14.2L306.07-14.2ZM325.82 0L322.47 0 319.27-9.35 304.37-9.35 301.12 0 297.77 0 309.67-33.7 314.17-33.7 325.82 0ZM355.57-32.35L355.57-32.35 355.57-29.1Q353.37-30.25 351.67-30.73 349.97-31.2 346.97-31.2L346.97-31.2Q341.17-31.2 337.29-27.28 333.42-23.35 333.42-17.05L333.42-17.05Q333.42-10.45 337.24-6.5 341.07-2.55 347.42-2.55L347.42-2.55Q352.37-2.55 355.67-5.15L355.67-5.15 355.67-1.75Q352.62 0.4 347.27 0.4L347.27 0.4Q339.62 0.4 334.92-4.25 330.22-8.9 330.22-17.05L330.22-17.05Q330.22-24.65 335.07-29.4 339.92-34.15 347.07-34.15L347.07-34.15Q352.02-34.15 355.57-32.35ZM382.17-18.6L382.17-33.7 385.27-33.7 385.27 0 382.17 0 382.17-15.75 364.77-15.75 364.77 0 361.67 0 361.67-33.7 364.77-33.7 364.77-18.6 382.17-18.6ZM396.36-15.4L396.36-2.85 411.51-2.85 411.51 0 393.26 0 393.26-33.7 411.21-33.7 411.21-30.85 396.36-30.85 396.36-18.25 409.46-18.25 409.46-15.4 396.36-15.4ZM420.86-30.95L420.86-16.45 426.31-16.45Q430.01-16.45 432.01-18.5 434.01-20.55 434.01-23.6L434.01-23.6Q434.01-30.95 425.71-30.95L425.71-30.95 420.86-30.95ZM430.11-14.25L439.06 0 435.36 0 426.91-13.7 425.96-13.7 420.86-13.7 420.86 0 417.76 0 417.76-33.7 425.36-33.7Q431.26-33.7 434.19-31.03 437.11-28.35 437.11-23.45L437.11-23.45Q437.01-20.05 435.21-17.6 433.41-15.15 430.11-14.25L430.11-14.25Z" opacity="1" transform="matrix(1,0,0,1,0,0)" fill="#000" class="undefined-text-1" data-fill-palette-color="secondary" id="text-1"></path></svg></g></svg></g></svg></g></svg></g><g transform="matrix(1,0,0,1,415.5477845926956,0)"><svg viewBox="0 0 170.58920474946422 170.58920474946422" height="170.58920474946422" width="170.58920474946422"><g><svg xmlns="http://www.w3.org/2000/svg" xmlnsXlink="http://www.w3.org/1999/xlink" version="1.1" x="0" y="0" viewBox="5 5 90 90" enable-background="new 0 0 100 100" xmlSpace="preserve" height="170.58920474946422" width="170.58920474946422" class="icon-icon-0" data-fill-palette-color="accent" id="icon-0"><path d="M40 15c-13.8 0-25 11.2-25 25s11.2 25 25 25 25-11.2 25-25S53.8 15 40 15zM29.4 50.6c1 1 1 2.6 0 3.5-0.5 0.5-1.1 0.7-1.8 0.7s-1.3-0.2-1.8-0.7C22.1 50.4 20 45.3 20 40s2.1-10.4 5.9-14.1c1-1 2.6-1 3.5 0 1 1 1 2.6 0 3.5C26.6 32.2 25 36 25 40S26.6 47.8 29.4 50.6z" fill="#2f76db" data-fill-palette-color="accent"></path><path d="M69.6 58.6C73 53.2 75 46.8 75 40 75 20.7 59.3 5 40 5S5 20.7 5 40s15.7 35 35 35c6.8 0 13.2-2 18.6-5.4l23.1 23.1c1.5 1.5 3.4 2.3 5.5 2.3 2.1 0 4-0.8 5.5-2.3 1.5-1.5 2.3-3.4 2.3-5.5 0-2.1-0.8-4-2.3-5.5L69.6 58.6zM40 70c-16.5 0-30-13.5-30-30s13.5-30 30-30 30 13.5 30 30S56.5 70 40 70zM89.2 89.2c-1.1 1.1-2.9 1.1-4 0L62.7 66.6c1.4-1.2 2.8-2.5 4-4l22.5 22.5c0.5 0.5 0.8 1.2 0.8 2C90 87.9 89.7 88.6 89.2 89.2z" fill="#2f76db" data-fill-palette-color="accent"></path></svg></g></svg></g></svg></g><defs></defs></svg><rect width="395.52" height="115.11207019750353" fill="none" stroke="none" visibility="hidden"></rect></g></svg></g></svg>